Patient4_TMGait_0pt4_03_left_39_GRF.mot
version=1
nRows=26
nColumns=19
inDegrees=no
endheader
time	F1x	F1y	F1z	M1x	M1y	M1z	F2x	F2y	F2z	M2x	M2y	M2z	EC1x	EC1y	EC1z	EC2x	EC2y	EC2z
51.73	-9.9391	10.2478	1.7673	-3.2424	-3.3602	7.19	-28.0399	716.1854	-54.4197	263.6465	71.8745	806.4283	-0.0592	0.0182	-0.0073	-0.0462	0.0165	0.9585
51.7426	-6.7894	7.5455	1.2813	-2.4082	-2.3836	5.5748	-25.6409	718.7191	-53.1487	264.1235	69.2647	806.9719	-0.0592	0.0182	-0.0073	-0.0462	0.0165	0.9585
51.7551	-4.0917	5.261	0.86627	-1.7149	-1.5351	4.1928	-23.1712	722.5324	-51.8949	265.0933	66.6038	808.2756	-0.0592	0.0182	-0.0073	-0.0462	0.0165	0.9585
51.7677	-2.0102	3.5259	0.54551	-1.1977	-0.87148	3.1287	-20.7459	727.7943	-50.8169	266.6402	64.1164	810.6191	-0.0592	0.0182	-0.0073	-0.0462	0.0165	0.9585
51.7803	-0.56785	2.3385	0.31804	-0.84956	-0.40841	2.4048	-18.3948	734.4333	-50.0302	268.7414	61.9496	814.041	-0.0592	0.0182	-0.0073	-0.0462	0.0165	0.9585
51.7929	0.31846	1.6156	0.16922	-0.64033	-0.12696	1.959	-16.0769	742.0935	-49.5818	271.2605	60.1504	818.2545	-0.0592	0.0182	-0.0073	-0.0462	0.0165	0.9585
51.8054	0.75665	1.2357	0.08571	-0.52831	0.00040081	1.7222	-13.7217	750.1864	-49.4653	273.97	58.6941	822.7107	-0.0592	0.0182	-0.0073	-0.0462	0.0165	0.9585
51.818	0.87067	1.0602	0.050785	-0.4711	0.015208	1.5954	-11.2426	757.9638	-49.6263	276.5854	57.5005	826.6743	-0.0592	0.0182	-0.0073	-0.0462	0.0165	0.9585
51.8306	0.7616	0.9674	0.058781	-0.42859	-0.057996	1.4874	-8.6023	764.6299	-49.9948	278.808	56.4812	829.3566	-0.0592	0.0182	-0.0073	-0.0462	0.0165	0.9585
51.8431	0.51676	0.82929	0.092551	-0.35991	-0.18684	1.2744	-5.7674	769.4715	-50.5099	280.3723	55.5592	830.0452	-0.0592	0.0182	-0.0073	-0.0462	0.0165	0.9585
51.8557	0.20015	0.53876	0.15328	-0.23078	-0.35786	0.85004	-2.7466	771.9622	-51.1265	281.0808	54.6869	828.2311	-0.0592	0.0182	-0.0073	-0.0462	0.0165	0.9585
51.8683	-0.13973	0.0070076	0.22663	-0.014135	-0.54525	0.12499	0.42778	771.8442	-51.8108	280.8388	53.8343	823.684	-0.0592	0.0182	-0.0073	-0.0462	0.0165	0.9585
51.8809	-0.45289	-0.84227	0.30444	0.31217	-0.72679	-0.96588	3.7139	769.2623	-52.5506	279.6993	53.0002	816.5955	-0.0592	0.0182	-0.0073	-0.0462	0.0165	0.9585
51.8934	-0.68615	-2.016	0.36331	0.74754	-0.86088	-2.4144	7.06	764.7383	-53.3591	277.8581	52.2154	807.5425	-0.0592	0.0182	-0.0073	-0.0462	0.0165	0.9585
51.906	-0.74538	-3.4343	0.3855	1.2615	-0.89258	-4.1233	10.3946	759.0608	-54.2712	275.612	51.5398	797.3712	-0.0592	0.0182	-0.0073	-0.0462	0.0165	0.9585
51.9186	-0.51615	-4.8721	0.33605	1.7746	-0.73886	-5.8306	13.6542	753.1596	-55.335	273.3064	51.0456	787.0684	-0.0592	0.0182	-0.0073	-0.0462	0.0165	0.9585
51.9311	0.15093	-5.9202	0.17456	2.1431	-0.29412	-7.069	16.7893	747.9071	-56.5823	271.2654	50.7884	777.5561	-0.0592	0.0182	-0.0073	-0.0462	0.0165	0.9585
51.9437	1.4243	-5.9351	-0.15904	2.1371	0.57504	-7.0721	19.7504	743.9427	-58.0226	269.7238	50.8008	769.529	-0.0592	0.0182	-0.0073	-0.0462	0.0165	0.9585
51.9563	3.4665	-4.0265	-0.72537	1.4333	2.0047	-4.775	22.5271	741.5059	-59.6365	268.7665	51.0731	763.2679	-0.0592	0.0182	-0.0073	-0.0462	0.0165	0.9585
51.9689	6.3852	0.97355	-1.5756	-0.39335	4.0988	1.2231	25.103	740.3316	-61.3769	268.2887	51.5662	758.5428	-0.0592	0.0182	-0.0073	-0.0462	0.0165	0.9585
51.9814	10.1695	10.4109	-2.7251	-3.8328	6.8723	12.5401	27.4574	739.5968	-63.1547	267.9775	52.2043	754.5586	-0.0592	0.0182	-0.0073	-0.0462	0.0165	0.9585
51.994	14.5739	25.6355	-4.1304	-9.3758	10.1763	30.8013	29.5141	737.9649	-64.8407	267.327	52.8904	750.0321	-0.0592	0.0182	-0.0073	-0.0462	0.0165	0.9585
52.0066	18.9695	47.6366	-5.6379	-17.3825	13.59	57.1921	31.1429	733.6787	-66.2388	265.6835	53.4783	743.2616	-0.0592	0.0182	-0.0073	-0.0462	0.0165	0.9585
52.0191	22.2169	76.4841	-6.9403	-27.8803	16.3206	91.8077	32.1649	724.8439	-67.1059	262.3485	53.7918	732.4275	-0.0592	0.0182	-0.0073	-0.0462	0.0165	0.9585
52.0317	22.7514	110.778	-7.541	-40.3602	17.2082	132.9977	32.4141	709.7398	-67.1805	256.6969	53.6365	715.8752	-0.0592	0.0182	-0.0073	-0.0462	0.0165	0.9585
52.0443	19.4936	147.6642	-6.8353	-53.7647	15.1243	177.3567	31.7418	687.2213	-66.2462	248.325	52.8637	692.5029	-0.0592	0.0182	-0.0073	-0.0462	0.0165	0.9585
